<mxfile host="app.diagrams.net" modified="2024-02-12T07:51:54.495Z" agent="Mozilla/5.0 (Windows NT 10.0; Win64; x64; rv:122.0) Gecko/20100101 Firefox/122.0" etag="iShO9tlQliNRQ-wmh7lX" version="23.1.2" type="github">
  <diagram name="Page-1" id="7e0a89b8-554c-2b80-1dc8-d5c74ca68de4">
    <mxGraphModel dx="989" dy="520" grid="1" gridSize="10" guides="1" tooltips="1" connect="1" arrows="1" fold="1" page="1" pageScale="1" pageWidth="1100" pageHeight="850" background="none" math="0" shadow="0">
      <root>
        <mxCell id="0" />
        <mxCell id="1" parent="0" />
        <mxCell id="c-U5yl1WiR5-7lJkExyn-17" style="edgeStyle=orthogonalEdgeStyle;rounded=0;orthogonalLoop=1;jettySize=auto;html=1;exitX=0;exitY=0.5;exitDx=0;exitDy=0;exitPerimeter=0;entryX=1;entryY=0.645;entryDx=0;entryDy=0;entryPerimeter=0;" edge="1" parent="1" source="T3-KpzdqTxJNzFgdl5m5-2" target="c-U5yl1WiR5-7lJkExyn-14">
          <mxGeometry relative="1" as="geometry">
            <mxPoint x="200" y="440" as="targetPoint" />
            <Array as="points">
              <mxPoint x="230" y="200" />
              <mxPoint x="230" y="448" />
              <mxPoint x="570" y="448" />
            </Array>
          </mxGeometry>
        </mxCell>
        <mxCell id="T3-KpzdqTxJNzFgdl5m5-2" value="" style="pointerEvents=1;verticalLabelPosition=bottom;shadow=0;dashed=0;align=center;html=1;verticalAlign=top;shape=mxgraph.electrical.resistors.resistor_1;" parent="1" vertex="1">
          <mxGeometry x="277" y="190" width="100" height="20" as="geometry" />
        </mxCell>
        <mxCell id="c-U5yl1WiR5-7lJkExyn-1" value="" style="ellipse;whiteSpace=wrap;html=1;aspect=fixed;" vertex="1" parent="1">
          <mxGeometry x="200" y="290" width="60" height="60" as="geometry" />
        </mxCell>
        <mxCell id="c-U5yl1WiR5-7lJkExyn-12" value="" style="pointerEvents=1;verticalLabelPosition=bottom;shadow=0;dashed=0;align=center;html=1;verticalAlign=top;shape=mxgraph.electrical.inductors.inductor_5;" vertex="1" parent="1">
          <mxGeometry x="398" y="191" width="100" height="14" as="geometry" />
        </mxCell>
        <mxCell id="c-U5yl1WiR5-7lJkExyn-13" value="" style="pointerEvents=1;verticalLabelPosition=bottom;shadow=0;dashed=0;align=center;html=1;verticalAlign=top;shape=mxgraph.electrical.resistors.resistor_1;rotation=90;" vertex="1" parent="1">
          <mxGeometry x="520" y="260" width="100" height="20" as="geometry" />
        </mxCell>
        <mxCell id="c-U5yl1WiR5-7lJkExyn-14" value="" style="pointerEvents=1;verticalLabelPosition=bottom;shadow=0;dashed=0;align=center;html=1;verticalAlign=top;shape=mxgraph.electrical.inductors.inductor_5;rotation=90;flipV=0;flipH=0;" vertex="1" parent="1">
          <mxGeometry x="522" y="371" width="100" height="14" as="geometry" />
        </mxCell>
        <mxCell id="c-U5yl1WiR5-7lJkExyn-15" style="edgeStyle=orthogonalEdgeStyle;rounded=0;orthogonalLoop=1;jettySize=auto;html=1;exitX=1;exitY=0.645;exitDx=0;exitDy=0;exitPerimeter=0;entryX=0;entryY=0.5;entryDx=0;entryDy=0;entryPerimeter=0;" edge="1" parent="1" source="c-U5yl1WiR5-7lJkExyn-12" target="c-U5yl1WiR5-7lJkExyn-13">
          <mxGeometry relative="1" as="geometry" />
        </mxCell>
        <mxCell id="c-U5yl1WiR5-7lJkExyn-20" style="edgeStyle=orthogonalEdgeStyle;rounded=0;orthogonalLoop=1;jettySize=auto;html=1;exitX=1;exitY=0.5;exitDx=0;exitDy=0;exitPerimeter=0;entryX=0;entryY=0.645;entryDx=0;entryDy=0;entryPerimeter=0;" edge="1" parent="1" source="T3-KpzdqTxJNzFgdl5m5-2" target="c-U5yl1WiR5-7lJkExyn-12">
          <mxGeometry relative="1" as="geometry" />
        </mxCell>
        <mxCell id="c-U5yl1WiR5-7lJkExyn-24" style="edgeStyle=orthogonalEdgeStyle;rounded=0;orthogonalLoop=1;jettySize=auto;html=1;exitX=1;exitY=0.5;exitDx=0;exitDy=0;exitPerimeter=0;entryX=0;entryY=0.645;entryDx=0;entryDy=0;entryPerimeter=0;" edge="1" parent="1" source="c-U5yl1WiR5-7lJkExyn-13" target="c-U5yl1WiR5-7lJkExyn-14">
          <mxGeometry relative="1" as="geometry" />
        </mxCell>
        <mxCell id="c-U5yl1WiR5-7lJkExyn-26" value="" style="pointerEvents=1;verticalLabelPosition=bottom;shadow=0;dashed=0;align=center;html=1;verticalAlign=top;shape=mxgraph.electrical.waveforms.sine_wave;" vertex="1" parent="1">
          <mxGeometry x="216.4" y="310" width="27.2" height="20" as="geometry" />
        </mxCell>
      </root>
    </mxGraphModel>
  </diagram>
</mxfile>
